<?xml version="1.0" encoding="utf-8"?>
<!-- Generator: Adobe Illustrator 24.0.2, SVG Export Plug-In . SVG Version: 6.00 Build 0)  -->
<svg version="1.1" id="Layer_1" xmlns="http://www.w3.org/2000/svg" xmlns:xlink="http://www.w3.org/1999/xlink" x="0px" y="0px"
	 viewBox="0 0 17 17" style="enable-background:new 0 0 17 17;" xml:space="preserve">
<style type="text/css">
	.st0{fill:#737373;}
</style>
<g>
	<path class="st0" d="M12.9,8.3v6.5c0,0.1-0.1,0.3-0.3,0.3H1.8c-0.1,0-0.3-0.1-0.3-0.3V4c0-0.1,0.1-0.3,0.3-0.3h6.5
		c0.4,0,0.7-0.3,0.7-0.7v0c0-0.4-0.3-0.7-0.7-0.7H1.8C0.9,2.2,0.1,3,0.1,4v10.8c0,0.9,0.8,1.7,1.7,1.7h10.8c0.9,0,1.7-0.8,1.7-1.7
		V8.3c0-0.4-0.3-0.7-0.7-0.7h0C13.2,7.6,12.9,7.9,12.9,8.3z"/>
	<path class="st0" d="M15.7,0.1H11c-0.4,0-0.7,0.3-0.7,0.7s0.3,0.7,0.7,0.7h3L6.7,8.9c-0.3,0.3-0.3,0.7,0,1c0.3,0.3,0.7,0.3,1,0
		L15,2.6v3c0,0.4,0.3,0.7,0.7,0.7h0c0.4,0,0.7-0.3,0.7-0.7V0.9C16.5,0.4,16.2,0.1,15.7,0.1z"/>
</g>
</svg>
