<svg width="70" height="70" viewBox="0 0 70 70" fill="none" xmlns="http://www.w3.org/2000/svg">
<rect width="70" height="70" fill="#6F63DE"/>
<path d="M37.8911 11C38.8419 11.2176 39.8287 11.3272 40.7336 11.6725C45.0013 13.2677 47.5787 16.3323 48.4427 20.8121C48.5065 21.1393 48.6522 21.2211 48.9451 21.2588C53.4027 21.8282 56.7835 24.8894 57.7604 29.2285C59.0794 35.0942 54.7936 40.9959 48.7978 41.4671C46.8652 41.6192 44.9163 41.5407 42.9738 41.5423C42.8269 41.5257 42.6785 41.558 42.5519 41.6344C42.4252 41.7107 42.3273 41.8268 42.2734 41.9645C41.4814 43.4694 40.9937 45.1157 40.8383 46.8092C40.8313 46.8913 40.8423 46.974 40.8706 47.0514C40.8988 47.1288 40.9437 47.1992 41.002 47.2575C42.4535 48.2097 42.7153 49.4368 41.7465 50.9552C41.9944 51.2437 42.1696 51.5873 42.2576 51.9573C42.3456 52.3274 42.3437 52.7131 42.2522 53.0822C41.9985 54.1196 41.1345 54.8051 40.0136 54.8509C39.9023 54.8479 39.7925 54.8772 39.6976 54.9353C39.6026 54.9934 39.5265 55.0777 39.4785 55.1782C38.962 56.0379 38.2321 56.7495 37.3594 57.244C36.4867 57.7384 35.501 57.9988 34.498 58C33.495 58.0011 32.5087 57.743 31.6349 57.2505C30.7611 56.7581 30.0295 56.0482 29.5111 55.1896C29.4647 55.1112 29.4025 55.0434 29.3284 54.9904C29.2542 54.9374 29.1699 54.9005 29.0807 54.882C26.9092 54.8395 25.9944 52.4605 27.2005 51.0239C27.2153 50.9977 27.2247 50.9688 27.2283 50.9388C26.451 49.6986 26.4935 48.5795 27.3543 47.727C27.463 47.5987 27.5973 47.4945 27.7487 47.4211C28.1692 47.2673 28.197 46.9695 28.148 46.5899C27.9405 44.9489 27.4418 43.3582 26.6752 41.8925C26.6256 41.7764 26.5395 41.6797 26.4299 41.6171C26.3203 41.5545 26.1932 41.5294 26.0681 41.5456C23.9718 41.5587 21.8772 41.5554 19.781 41.5456C15.2547 41.5423 11.7167 38.4631 11.0753 33.9718C11.057 33.8997 11.0318 33.8296 11 33.7624L11 32.1066C11.0295 31.9904 11.0671 31.8742 11.0867 31.7548C11.6289 28.4988 13.4208 26.2202 16.4623 24.9189C16.7389 24.8011 17.0302 24.7127 17.3264 24.6047C17.0547 22.0081 17.7993 19.7977 19.8104 18.1206C21.8216 16.4435 24.1633 16.113 26.6408 16.8575C26.6752 16.8297 26.6899 16.8231 26.6981 16.81C26.7488 16.7348 26.7995 16.6579 26.847 16.581C28.4654 14.0155 30.7269 12.2942 33.6414 11.4565C34.3401 11.2552 35.0667 11.1505 35.7802 11H37.8911ZM43.54 39.9863C44.7428 39.9863 45.7966 40.0125 46.8489 39.9863C47.762 39.9585 48.6964 39.9667 49.5833 39.7802C53.91 38.8721 56.759 34.8504 56.358 30.4769C55.9849 26.4127 52.5125 23.0406 48.2725 22.7657C47.4543 22.7133 47.0714 22.3468 46.9765 21.5156C46.4152 16.6071 42.1671 12.6803 37.2251 12.5887C33.1717 12.5102 30.0806 14.2723 27.9827 17.7459C27.5196 18.5133 27.0712 18.672 26.2186 18.4004C25.7296 18.2289 25.2211 18.119 24.7049 18.0732C21.0983 17.8719 18.4489 20.7679 18.8973 24.3773C19.0397 25.5226 18.8253 25.8351 17.7076 26.1476C14.5297 27.0344 12.3091 30.1775 12.5873 33.3795C12.895 36.8891 15.4658 39.6313 18.8646 39.9062C20.6876 40.0534 22.5302 39.9683 24.3646 39.9863C24.6804 39.9863 24.9962 39.9863 25.4511 39.9863C22.9114 37.1525 21.6874 33.9522 22.0147 30.2528C22.342 26.5534 24.0569 23.5298 27.0368 21.2964C29.3451 19.5778 32.1762 18.7091 35.0513 18.8373C37.9264 18.9655 40.669 20.0827 42.8151 22C44.9773 23.8703 46.406 26.4467 46.8472 29.2711C47.5051 33.314 46.3465 36.8514 43.54 39.9863ZM36.8553 47.0284C37.6097 47.0284 38.2953 47.0431 38.9826 47.0137C39.0857 47.0137 39.2363 46.8042 39.2641 46.6701C39.3966 46.0156 39.4637 45.3399 39.6126 44.687C40.1821 42.205 41.4225 40.0845 43.0344 38.1293C45.1273 35.59 45.885 32.6285 45.2877 29.4052C44.1422 23.2418 38.3101 19.3804 32.1719 20.6452C27.4492 21.6269 23.8262 25.8253 23.5627 30.6471C23.3991 33.6151 24.3073 36.2101 26.2301 38.4696C27.7179 40.1882 28.7827 42.2312 29.3393 44.4351C29.5487 45.2728 29.6665 46.1334 29.8302 47.0039H32.1572V46.5326C32.1572 44.9423 32.1572 43.3514 32.1572 41.7599C32.1572 40.6244 31.645 40.0796 30.5207 39.9814C29.4964 39.8931 28.7567 39.3875 28.3934 38.4205C27.8518 36.9692 28.8647 35.3478 30.4177 35.3118C33.1537 35.2529 35.8931 35.2954 38.6308 35.3004C38.7836 35.3043 38.9351 35.3296 39.0808 35.3756C40.1919 35.6947 40.8678 36.7156 40.7614 37.9002C40.6599 39.021 39.7272 39.8784 38.4982 39.9814C37.4019 40.0714 36.8815 40.6359 36.8733 41.7289C36.8733 42.5077 36.8733 43.2881 36.8733 44.0686L36.8553 47.0284ZM35.2843 47.012V46.4656C35.2843 44.8916 35.2942 43.3176 35.2843 41.7452C35.2762 40.7063 35.6116 39.8325 36.4167 39.1503C36.4577 39.107 36.4944 39.0598 36.5264 39.0095C36.06 38.3551 35.9749 37.6564 36.1696 36.8825H32.8052C33.0572 37.681 32.8919 38.3878 32.4615 39.0586C33.4434 39.8244 33.7428 40.8486 33.7167 42.0299C33.6856 43.527 33.7167 45.0257 33.7167 46.5228C33.7167 46.6864 33.733 46.8501 33.7428 47.0137L35.2843 47.012ZM34.5447 51.7406C32.7577 51.7406 30.9691 51.7308 29.1822 51.752C28.9318 51.752 28.5947 51.8436 28.4556 52.0187C28.3794 52.1341 28.3276 52.2639 28.3034 52.4001C28.2792 52.5363 28.2831 52.676 28.3149 52.8106C28.4229 53.2131 28.8058 53.3097 29.1985 53.3015C32.7288 53.3015 36.258 53.3015 39.7861 53.3015C40.4079 53.3015 40.7516 53.007 40.7483 52.5047C40.745 52.0024 40.421 51.7389 39.7665 51.7389C38.0275 51.7335 36.2869 51.734 34.5447 51.7406ZM34.4956 48.6073H30.6909C30.1264 48.6073 29.5602 48.5959 28.9956 48.6171C28.8021 48.6127 28.6147 48.6848 28.474 48.8178C28.3334 48.9507 28.2509 49.1338 28.2445 49.3272C28.2267 49.5276 28.2884 49.727 28.4164 49.8822C28.5444 50.0374 28.7284 50.1361 28.9285 50.1568C29.0653 50.1729 29.2032 50.1783 29.3409 50.1731C32.7774 50.1731 36.2138 50.1731 39.6503 50.1731C39.8467 50.1731 40.097 50.2026 40.2263 50.0979C40.4407 49.9228 40.7009 49.6561 40.7172 49.4188C40.7336 49.1816 40.4963 48.8871 40.2967 48.6957C40.1821 48.586 39.9203 48.6122 39.7239 48.6122C37.9779 48.5975 36.2367 48.6008 34.4956 48.6008V48.6073ZM31.2571 54.8951C33.2961 57.297 36.6655 56.5116 37.662 54.8951H31.2571ZM31.3635 37.6499C31.3644 37.5469 31.3447 37.4447 31.3058 37.3493C31.2668 37.254 31.2092 37.1673 31.1364 37.0944C31.0636 37.0214 30.9771 36.9637 30.8818 36.9245C30.7865 36.8854 30.6843 36.8655 30.5813 36.8662C30.4821 36.8631 30.3833 36.8798 30.2906 36.9151C30.1979 36.9505 30.1131 37.0038 30.0411 37.0721C29.9691 37.1404 29.9114 37.2223 29.8713 37.3131C29.8311 37.4038 29.8094 37.5016 29.8073 37.6008C29.7984 37.8086 29.8723 38.0114 30.0128 38.1648C30.1533 38.3182 30.3489 38.4095 30.5567 38.4189C30.7658 38.4203 30.9671 38.34 31.1178 38.1951C31.2685 38.0502 31.3567 37.8523 31.3635 37.6433V37.6499ZM39.1839 37.6499C39.1868 37.547 39.1688 37.4446 39.1309 37.349C39.093 37.2533 39.0361 37.1663 38.9635 37.0933C38.891 37.0203 38.8043 36.9628 38.7089 36.9243C38.6134 36.8859 38.5111 36.8672 38.4082 36.8694C38.2077 36.8688 38.0147 36.9455 37.8693 37.0835C37.7239 37.2216 37.6374 37.4104 37.6277 37.6106C37.624 37.8195 37.7017 38.0216 37.8443 38.1742C37.9869 38.3269 38.1832 38.4181 38.3919 38.4287C38.4962 38.4298 38.5997 38.4101 38.6963 38.3707C38.7929 38.3312 38.8806 38.273 38.9544 38.1992C39.0281 38.1255 39.0864 38.0377 39.1258 37.9411C39.1653 37.8446 39.185 37.7411 39.1839 37.6368V37.6499Z" fill="white"/>
<path d="M29.3054 29.7947C29.9109 30.3886 30.4951 30.94 31.058 31.5208C31.4753 31.9462 31.441 32.5025 31.0024 32.779C30.8528 32.8906 30.6664 32.9412 30.4809 32.9209C30.2954 32.9006 30.1245 32.8107 30.0026 32.6694C29.2302 31.9102 28.4611 31.1461 27.7116 30.3788C27.3434 29.9992 27.3532 29.5934 27.7328 29.2056C28.4812 28.4421 29.2367 27.6873 29.9993 26.9412C30.0707 26.8608 30.1579 26.796 30.2554 26.7508C30.353 26.7056 30.4588 26.681 30.5663 26.6786C30.6738 26.6761 30.7807 26.6959 30.8802 26.7365C30.9797 26.7772 31.0698 26.838 31.1448 26.915C31.4622 27.2422 31.454 27.6824 31.0875 28.0603C30.5147 28.6215 29.9305 29.1811 29.3054 29.7947Z" fill="white"/>
<path d="M39.683 29.7882C39.0873 29.2057 38.5375 28.674 37.9975 28.1357C37.5557 27.6939 37.5197 27.2472 37.8862 26.8971C38.2266 26.5698 38.6799 26.614 39.0955 27.0247C39.7915 27.7141 40.4832 28.4056 41.1705 29.0994C41.6614 29.6 41.6745 29.9829 41.1885 30.4754C40.4914 31.1822 39.7894 31.8847 39.0824 32.5828C38.6439 33.0163 38.1824 33.0507 37.8404 32.6907C37.4984 32.3308 37.5491 31.9087 37.9713 31.4833C38.5195 30.9302 39.0759 30.387 39.683 29.7882Z" fill="white"/>
<path d="M36.0647 27.5074C36.0385 27.6039 36.0074 27.7364 35.9649 27.8657C35.4838 29.3153 35.0005 30.7633 34.515 32.2097C34.317 32.7987 33.9227 33.0458 33.4661 32.8822C33.0095 32.7186 32.8394 32.2948 33.0341 31.7074C33.5228 30.2294 34.0138 28.753 34.5069 27.2783C34.6705 26.8038 35.0272 26.5895 35.4592 26.6991C35.8536 26.7956 36.0369 27.0705 36.0647 27.5074Z" fill="white"/>
</svg>
