<svg width="62" height="63" viewBox="0 0 62 63" fill="none" xmlns="http://www.w3.org/2000/svg">
<path d="M61.2998 31.3865C61.344 48.1936 47.5553 61.9999 30.7239 61.9999C13.8925 61.9999 0.19003 48.2842 0.148045 31.4572C0.10606 14.6302 13.8903 0.845947 30.7239 0.845947C47.5576 0.845947 61.2534 14.5462 61.2998 31.3865ZM12.7611 32.6769V32.7035H12.0142C11.0884 32.7035 11.0773 32.7035 11.2011 33.6448C11.9546 39.4144 14.6659 44.0305 19.377 47.4511C22.1503 49.452 25.4093 50.6729 28.8147 50.9867C29.2854 51.0353 29.4776 50.9425 29.4489 50.4188C29.4025 49.7249 29.4202 49.0266 29.4489 48.3306C29.4754 47.4666 29.9417 46.9539 30.6775 46.9318C31.4531 46.9075 31.979 47.429 32.0144 48.3063C32.0608 48.9765 32.0608 49.6491 32.0144 50.3193C31.9525 50.9668 32.2354 51.0419 32.7701 50.9822C36.6209 50.5681 40.2664 49.0364 43.2574 46.5761C43.5977 46.2976 43.5867 46.1341 43.2817 45.8424C39.7374 42.3187 36.2018 38.7831 32.6751 35.2358C32.5855 35.1222 32.4612 35.0411 32.3211 35.0048C32.1811 34.9685 32.033 34.979 31.8995 35.0347C31.2322 35.2554 30.5166 35.2859 29.833 35.1226C29.1494 34.9594 28.5247 34.609 28.0291 34.1106C27.5335 33.6123 27.1866 32.9857 27.0271 32.3012C26.8677 31.6167 26.9021 30.9013 27.1265 30.2352C27.1822 30.1155 27.1962 29.9805 27.1662 29.8519C27.1361 29.7233 27.0638 29.6085 26.9608 29.5259C23.4031 25.9771 19.8499 22.4253 16.3011 18.8706C16.1 18.6695 15.9586 18.4618 15.6713 18.811C13.1024 21.8774 11.5305 25.6549 11.1657 29.6386C11.1281 30.0231 11.2276 30.1623 11.6342 30.149C12.454 30.1269 13.2782 30.1181 14.0958 30.1755C14.2522 30.1812 14.406 30.2179 14.5481 30.2837C14.6902 30.3495 14.8177 30.4429 14.9233 30.5585C15.0288 30.6742 15.1102 30.8097 15.1628 30.9571C15.2154 31.1046 15.238 31.2611 15.2294 31.4174C15.245 31.7326 15.1349 32.0412 14.9231 32.2753C14.7114 32.5094 14.4154 32.6499 14.1002 32.6659C13.6544 32.6939 13.2074 32.6976 12.7611 32.6769ZM17.7728 16.6742C17.8007 16.7263 17.8333 16.7758 17.87 16.8222C21.4895 20.4476 25.1105 24.0716 28.733 27.694C28.8655 27.8266 28.9694 28.0387 29.2213 27.9371C29.4732 27.8354 29.4688 27.6034 29.4688 27.3758C29.4688 25.3606 29.4688 23.3453 29.4688 21.33C29.4688 20.6671 29.4489 19.9865 29.4953 19.317C29.5417 18.6474 30.0102 18.2585 30.6709 18.1812C30.9732 18.1584 31.2732 18.2486 31.5129 18.4344C31.7525 18.6201 31.9147 18.8881 31.968 19.1866C32.0167 19.4548 32.0367 19.7274 32.0277 19.9998C32.0277 22.3642 32.0409 24.7264 32.0277 27.0886C32.0277 27.5747 32.0895 27.9128 32.6022 28.1338C33.2704 28.4314 33.8016 28.9704 34.0893 29.643C34.2771 30.0628 34.5313 30.1534 34.9467 30.149C36.6128 30.1291 38.2789 30.149 39.9451 30.149C40.3716 30.149 40.8047 30.149 41.1405 30.4606C41.3379 30.6151 41.4818 30.8277 41.5519 31.0683C41.6221 31.3089 41.615 31.5655 41.5317 31.8019C41.3107 32.4361 40.8466 32.699 40.2213 32.7035C38.4292 32.7145 36.6393 32.7035 34.8473 32.7035C34.6064 32.7035 34.328 32.6394 34.2175 32.9532C34.1291 33.2029 34.3567 33.3023 34.4871 33.4327C38.0373 36.9888 41.5876 40.5435 45.1379 44.0968C45.3589 44.3288 45.5003 44.4105 45.7544 44.0968C48.3517 41.0191 49.9408 37.2178 50.3064 33.2073C50.3506 32.7432 50.1717 32.6725 49.7739 32.6858C49.0292 32.7101 48.2801 32.7167 47.5355 32.6858C46.7311 32.6482 46.2494 32.1488 46.2428 31.4307C46.2361 30.7125 46.7201 30.2021 47.5134 30.1556C48.1343 30.1181 48.7574 30.1424 49.3784 30.1424C50.386 30.1424 50.4015 30.1424 50.2622 29.1281C49.4668 23.2437 46.6494 18.5789 41.7769 15.1826C39.1253 13.3309 36.1421 12.31 32.9381 11.8835C32.2751 11.7973 31.9216 11.8724 32.0188 12.6724C32.0722 13.2927 32.0759 13.9164 32.0299 14.5374C31.9945 15.4212 31.4819 15.945 30.704 15.9273C29.9262 15.9096 29.5019 15.4014 29.4776 14.5307C29.46 13.8104 29.4489 13.0878 29.4776 12.3674C29.4997 11.9255 29.3362 11.8216 28.9252 11.8614C27.984 11.9529 27.0506 12.1117 26.1321 12.3365C23.0326 13.0762 20.1621 14.5657 17.7728 16.6742ZM30.6289 3.39154C29.6058 3.43574 28.4192 3.48435 27.2281 3.63682C21.5227 4.36603 16.5287 6.65751 12.2021 10.4251C11.8706 10.7145 11.8706 10.867 12.1755 11.1587C13.318 12.2636 14.4516 13.3861 15.5498 14.5396C15.8901 14.8975 16.0602 14.7981 16.3784 14.5396C21.4785 10.2925 27.3276 8.55344 33.917 9.46385C44.4706 10.9134 52.6355 20.0351 52.9205 30.7346C53.073 36.4047 51.2765 41.423 47.6172 45.7607C47.3189 46.1164 47.2791 46.3043 47.6349 46.6446C48.7508 47.7097 49.8446 48.7968 50.9053 49.9172C51.292 50.3237 51.471 50.2464 51.7892 49.8597C57.7399 42.7886 59.9651 34.7033 58.1045 25.6743C55.4595 12.6922 44.064 3.49761 30.6289 3.39154ZM30.978 59.4543C31.4598 59.4256 32.2553 59.388 33.0485 59.3306C33.4684 59.3018 33.8882 59.2488 34.3059 59.1936C39.9561 58.4643 44.9125 56.1883 49.2148 52.4738C49.533 52.202 49.4977 52.0606 49.2148 51.7954C48.0768 50.6906 46.9455 49.5636 45.8406 48.4212C45.5379 48.1074 45.3677 48.0765 45.0098 48.3726C40.2765 52.2904 34.845 54.0471 28.7064 53.5411C17.6579 52.6307 8.80351 43.2659 8.51183 32.14C8.36599 26.4986 10.1249 21.4958 13.7467 17.1647C14.0516 16.8001 14.0538 16.6167 13.7113 16.2808C12.6064 15.2312 11.5325 14.1683 10.4984 13.0591C10.0697 12.5994 9.86418 12.6922 9.51062 13.1165C3.64824 20.1721 1.47388 28.2332 3.33225 37.1958C6.03915 50.2111 17.4148 59.3615 30.978 59.4543Z" fill="#6F63DE"/>
</svg>
