<svg width="30" height="32" viewBox="0 0 30 32" fill="none" xmlns="http://www.w3.org/2000/svg">
<path d="M17.4392 0.378589C21.0247 1.02948 24.0366 2.76492 26.387 5.65162C29.3612 9.30474 30.5087 13.5437 29.7925 18.2626C29.1718 22.3494 27.2151 25.6706 24.0491 28.1724C20.7727 30.7613 17.0518 31.7588 12.9739 31.2072C9.98327 30.8004 7.34716 29.5295 5.09143 27.4467C2.48506 25.0433 0.860964 22.0524 0.234808 18.4823C0.133058 17.9054 0.0782695 17.3237 0 16.7395V14.7869C0.0446136 14.4061 0.0829656 14.0245 0.136189 13.6478C0.605806 10.2493 1.98648 7.30813 4.30091 4.86078C6.54646 2.48259 9.2538 0.992054 12.4151 0.413574C12.9606 0.3135 14.9996 -0.0876113 17.4392 0.378589ZM18.9788 10.3714V7.30488C18.95 7.29005 18.9195 7.27938 18.888 7.27315C17.8047 7.28128 16.7176 7.23247 15.6406 7.31871C14.5268 7.40821 13.6502 7.98425 13.1187 9.04845C12.7634 9.76118 12.6617 10.5276 12.6671 11.3176C12.6671 11.905 12.6671 12.4925 12.6671 13.1141H10.9742V16.3222H12.6797V25.3337H16.2957V16.3026H18.7299C18.8348 15.2344 18.9373 14.1921 19.043 13.1165H16.2887C16.2887 12.5315 16.2887 11.9775 16.2887 11.4201C16.2887 10.6065 16.5117 10.3755 17.3022 10.3755L18.9788 10.3714Z" fill="#272D3D"/>
</svg>
