<svg width="31" height="32" viewBox="0 0 31 32" fill="none" xmlns="http://www.w3.org/2000/svg">
<path d="M17.5165 0.20966C20.6882 0.56805 23.5074 1.79708 25.8791 4.01702C29.6787 7.57101 31.3655 12.039 30.9262 17.3336C30.6683 20.4322 29.543 23.2028 27.6488 25.609C25.293 28.6007 22.2781 30.4592 18.616 31.1534C18.0616 31.2584 17.5001 31.3164 16.9398 31.3976H15.0638C14.6979 31.3506 14.3302 31.3097 13.9654 31.2559C11.1967 30.8456 8.70989 29.7467 6.54846 27.8979C3.67987 25.4374 1.89317 22.3023 1.23005 18.4894C1.12962 17.9112 1.07323 17.3251 0.995117 16.7426V14.7889C1.01861 14.5886 1.04504 14.3884 1.06619 14.1881C1.41331 10.8771 2.61501 7.94955 4.73591 5.45364C7.06767 2.70923 9.9715 1.00215 13.4468 0.371454C15.0967 0.0393172 17.3233 0.18768 17.5165 0.20966ZM7.33844 15.7743C7.39247 17.2592 7.39717 18.7574 7.51464 20.2453C7.69672 22.5196 9.22087 24.2249 11.3811 24.5448C12.4683 24.706 13.5807 24.728 14.6814 24.728C16.5456 24.728 18.4158 24.7365 20.2735 24.5998C21.9968 24.4728 23.3077 23.5533 24.0654 21.8877C24.3868 21.1645 24.5543 20.3777 24.5564 19.5811C24.587 17.4759 24.6034 15.3701 24.6058 13.2637C24.6018 12.6027 24.5657 11.9423 24.4977 11.285C24.2739 9.00457 22.7944 7.31642 20.6212 6.98733C19.5446 6.82493 18.4416 6.80417 17.3503 6.80417C15.4761 6.80417 13.5966 6.79501 11.7288 6.92628C9.39943 7.09601 7.70553 8.88857 7.51464 11.3124C7.39365 12.7906 7.39306 14.2785 7.33844 15.7743Z" fill="#272D3D"/>
<path d="M16.0257 8.37988C17.3255 8.41896 18.6159 8.42323 19.9022 8.50199C21.7289 8.61616 22.9159 9.79452 22.964 11.6903C23.0326 14.4031 23.0326 17.1172 22.964 19.8325C22.9159 21.7252 21.7247 22.9182 19.904 23.0263C17.2906 23.1808 14.6709 23.1794 12.0576 23.022C10.9123 22.953 9.9667 22.4517 9.40931 21.3436C9.10389 20.7361 8.99112 20.0688 8.99053 19.396C8.99053 16.8231 8.96175 14.2491 9.03987 11.6787C9.0986 9.80307 10.2833 8.61433 12.0847 8.50382C13.3991 8.42384 14.7189 8.41896 16.0257 8.37988ZM15.9923 11.1603C15.1163 11.1604 14.2599 11.4305 13.5315 11.9364C12.8032 12.4423 12.2354 13.1613 11.9 14.0026C11.5647 14.8438 11.4767 15.7695 11.6474 16.6627C11.818 17.5559 12.2395 18.3764 12.8587 19.0206C13.4778 19.6648 14.2668 20.1038 15.1259 20.282C15.9849 20.4602 16.8756 20.3696 17.6851 20.0218C18.4947 19.674 19.1869 19.0844 19.6743 18.3277C20.1617 17.5711 20.4223 16.6812 20.4232 15.7705C20.4253 15.1649 20.3121 14.5647 20.0902 14.0047C19.8684 13.4447 19.5421 12.9358 19.1303 12.5073C18.7185 12.0788 18.2292 11.7392 17.6907 11.508C17.1521 11.2769 16.5749 11.1587 15.9923 11.1603ZM21.6308 10.9594C21.6276 10.7471 21.5638 10.5405 21.4474 10.366C21.331 10.1915 21.1673 10.0569 20.9772 9.97938C20.787 9.90186 20.5789 9.8849 20.3794 9.93066C20.1799 9.97642 19.998 10.0828 19.8569 10.2364C19.7157 10.3899 19.6217 10.5836 19.5868 10.7928C19.5519 11.0021 19.5776 11.2174 19.6608 11.4114C19.7439 11.6053 19.8807 11.7692 20.0537 11.8822C20.2267 11.9951 20.4281 12.052 20.6323 12.0456C20.9029 12.0381 21.1598 11.9197 21.3469 11.7163C21.534 11.5129 21.6363 11.2408 21.6314 10.9594H21.6308Z" fill="#272D3D"/>
<path d="M18.8729 15.7765C18.8696 16.367 18.698 16.9431 18.3797 17.4321C18.0614 17.9212 17.6107 18.3011 17.0846 18.5238C16.5586 18.7465 15.9808 18.8021 15.4244 18.6835C14.868 18.5648 14.3579 18.2773 13.9587 17.8573C13.5595 17.4373 13.2891 16.9036 13.1817 16.3238C13.0743 15.744 13.1347 15.1441 13.3553 14.6001C13.5759 14.056 13.9468 13.5921 14.421 13.2672C14.8953 12.9422 15.4516 12.7707 16.0196 12.7745C16.7803 12.7812 17.5075 13.1009 18.0422 13.6634C18.5769 14.226 18.8756 14.9857 18.8729 15.7765Z" fill="#272D3D"/>
</svg>
