<svg width="31" height="32" viewBox="0 0 31 32" fill="none" xmlns="http://www.w3.org/2000/svg">
<path d="M19.649 0.644225C27.0361 2.60956 31.7573 9.71292 30.895 17.6084C30.4603 21.588 28.7756 24.9552 25.8339 27.5336C21.5036 31.3242 16.5397 32.4054 11.1787 30.4946C5.67748 28.5342 2.40683 24.4049 1.23203 18.4845C1.11925 17.9146 1.07539 17.3235 0.99707 16.7422V14.7923C1.07539 14.2224 1.13335 13.6477 1.22655 13.0826C2.26351 6.76655 7.03398 1.68632 13.0732 0.47407C13.7507 0.337295 16.7793 -0.251328 19.649 0.644225ZM16.9509 23.9661V23.5972C16.9509 21.8916 16.9462 20.1852 16.9509 18.4796C16.9509 17.8592 16.9994 17.2405 17.2806 16.673C17.637 15.9533 18.3497 15.6325 19.2832 15.766C19.9247 15.858 20.368 16.3148 20.5097 17.0939C20.5831 17.5029 20.6213 17.9178 20.6241 18.3338C20.6366 20.1005 20.6303 21.8672 20.6311 23.6339V23.9595H23.8892C23.8955 23.861 23.9057 23.7821 23.9057 23.7031C23.9057 21.7028 23.9229 19.7016 23.8924 17.7021C23.8812 16.9718 23.8057 16.2442 23.6668 15.5283C23.4178 14.2452 22.7372 13.287 21.4676 12.9442C20.9295 12.7996 20.3746 12.7338 19.8189 12.7488C18.6073 12.7839 17.6142 13.3008 16.9399 14.3902C16.9023 14.4331 16.8615 14.4729 16.8177 14.509V13.0379H13.717V23.9661H16.9509ZM11.6251 13.0436H8.39283V23.9604H11.6267L11.6251 13.0436ZM9.99135 11.5114C10.3687 11.5118 10.7376 11.3958 11.0514 11.178C11.3652 10.9602 11.6097 10.6504 11.7539 10.2879C11.898 9.92546 11.9354 9.52665 11.8612 9.14208C11.787 8.75751 11.6046 8.4045 11.3372 8.12784C11.0697 7.85119 10.7292 7.66334 10.3589 7.58813C9.98859 7.51291 9.60512 7.55373 9.25715 7.70539C8.90918 7.85706 8.61238 8.11273 8.4044 8.44C8.19641 8.76726 8.08663 9.15136 8.08895 9.54358C8.09226 10.0664 8.29426 10.5666 8.65092 10.9352C9.00758 11.3038 9.48997 11.5109 9.99291 11.5114H9.99135Z" fill="#272D3D"/>
</svg>
