<svg width="31" height="32" viewBox="0 0 31 32" fill="none" xmlns="http://www.w3.org/2000/svg">
<path d="M14.473 31.2833C11.3258 30.9225 8.52031 29.7149 6.15356 27.5208C2.32388 23.9666 0.617236 19.4973 1.06357 14.1879C1.34312 10.8638 2.59873 7.92923 4.74114 5.44151C7.66816 2.04478 11.3463 0.27438 15.7351 0.162662C18.5846 0.0900143 21.2556 0.817099 23.6857 2.37078C27.5518 4.84507 29.9297 8.41456 30.7631 13.0664C30.8641 13.633 30.9175 14.2093 30.9933 14.7807V16.7342C30.9692 16.9345 30.9422 17.1341 30.9217 17.3343C30.5998 20.4203 29.5245 23.1882 27.6329 25.5887C25.2767 28.5733 22.2633 30.4267 18.6028 31.119C16.9302 31.4756 14.6651 31.3052 14.473 31.2833ZM24.0457 9.16362C23.4062 9.39744 22.7731 9.62393 22.1435 9.8614C21.9709 9.92612 21.8599 9.87606 21.7324 9.7503C19.8108 7.88344 16.653 8.86571 16.0581 11.5311C15.9406 12.0512 15.9753 12.608 15.9377 13.1684C14.5988 13.0951 13.29 12.7279 12.0975 12.0909C10.8736 11.4468 9.8323 10.5574 8.94022 9.44933C8.57561 10.0862 8.41711 10.8278 8.48801 11.5653C8.58256 12.655 9.09174 13.5133 9.92509 14.1793L9.8787 14.263L8.44631 13.8442C8.44953 14.6431 8.71214 15.4175 9.19158 16.0419C9.67902 16.6854 10.3209 17.0883 11.0809 17.3075L11.0621 17.3978H9.64496C10.2152 18.924 11.2647 19.7292 12.8333 19.8971C12.1369 20.4681 11.3384 20.8897 10.4842 21.1376C9.63873 21.3878 8.75524 21.4686 7.88076 21.3757C7.90719 21.4246 7.91247 21.4465 7.92598 21.4575C7.95689 21.4822 7.98969 21.5043 8.02406 21.5235C11.6212 23.568 15.2142 23.579 18.6245 21.1877C21.4317 19.2171 22.7473 16.2904 22.8359 12.7795C22.8442 12.4401 22.9469 12.2429 23.1824 12.0225C23.6076 11.6233 23.9817 11.1678 24.374 10.7283C24.4239 10.6571 24.4673 10.5813 24.5038 10.5018C24.2601 10.5922 24.071 10.6691 23.8772 10.7313C23.6834 10.7936 23.4837 10.8479 23.284 10.8962C23.0979 10.9413 22.9082 10.9737 22.7202 11.0116C23.3392 10.489 23.8067 9.89925 24.0475 9.16362H24.0457Z" fill="#272D3D"/>
</svg>
