<svg width="31" height="32" viewBox="0 0 31 32" fill="none" xmlns="http://www.w3.org/2000/svg">
<path d="M17.1544 0.183253C19.4908 0.366412 21.6769 1.06364 23.6738 2.34209C27.5455 4.82573 29.9312 8.39979 30.767 13.0697C30.8686 13.6369 30.9214 14.2139 30.9972 14.7866V16.7403C30.9731 16.9405 30.9461 17.1402 30.9256 17.341C30.6043 20.4327 29.5289 23.2058 27.6365 25.6101C25.2807 28.6017 22.2671 30.4571 18.6069 31.1506C17.2167 31.5206 14.9067 31.349 14.8298 31.3423C11.5507 31.0645 8.64049 29.8386 6.18134 27.5705C2.33315 24.0172 0.620493 19.5279 1.06745 14.1998C1.35054 10.798 2.65735 7.82039 4.85749 5.29462C7.17158 2.63881 10.033 0.98366 13.4325 0.369465C15.208 0.0629782 17.0781 0.177758 17.1544 0.183253ZM15.9463 8.85768V8.92728C15.7219 8.92728 15.4964 8.91813 15.2726 8.92728C13.2252 9.02619 11.1754 9.0964 9.1315 9.24354C7.96682 9.32718 7.16277 10.0983 6.96895 11.2943C6.80167 12.3673 6.69557 13.4496 6.6512 14.5356C6.56251 16.4582 6.60245 18.382 6.97012 20.2746C7.18038 21.362 7.84759 22.0525 8.89891 22.2179C9.86489 22.3622 10.8375 22.4537 11.8127 22.4921C15.3572 22.6581 18.9011 22.6545 22.4398 22.3449C24.1243 22.1972 24.8913 21.4609 25.1245 19.7374C25.3623 17.9844 25.4324 16.2113 25.3336 14.444C25.2819 13.3586 25.1701 12.2772 24.9988 11.2052C24.8226 10.1673 24.1513 9.53843 23.1628 9.3052C22.8679 9.23372 22.5677 9.18878 22.2654 9.17089C20.1592 9.06099 18.0525 8.96086 15.9463 8.85768Z" fill="#272D3D"/>
<path d="M14.1328 18.686V12.8408L19.0047 15.7622L14.1328 18.686Z" fill="#272D3D"/>
</svg>
